<svg width="1200" height="630" viewBox="0 0 1200 630" fill="none" xmlns="http://www.w3.org/2000/svg">
<mask id="mask0_2053_11" style="mask-type:alpha" maskUnits="userSpaceOnUse" x="0" y="0" width="1200" height="630">
<rect width="1200" height="630" fill="#191919"/>
</mask>
<g mask="url(#mask0_2053_11)">
<rect width="1200" height="630" fill="#191919"/>
<path d="M513.512 250.711C513.059 259.319 509.933 266.522 504.134 272.321C498.335 278.12 489.773 282.47 478.447 285.369C467.211 288.269 452.985 289.718 435.77 289.718C422.631 289.718 410.852 288.993 400.432 287.544C390.012 286.185 381.132 283.829 373.793 280.476C366.453 277.033 360.836 272.367 356.939 266.477C353.043 260.587 351.095 253.157 351.095 244.187C351.095 235.217 353.043 227.741 356.939 221.761C360.836 215.69 366.453 210.888 373.793 207.354C381.132 203.73 390.012 201.148 400.432 199.607C410.852 198.067 422.631 197.297 435.77 197.297C452.985 197.297 467.256 198.882 478.582 202.054C489.909 205.134 498.471 209.71 504.27 215.781C510.069 221.852 513.195 229.237 513.648 237.935H478.311C477.223 235.036 475.23 232.498 472.33 230.324C469.431 228.059 465.082 226.292 459.283 225.023C453.484 223.755 445.646 223.12 435.77 223.12C424.172 223.12 414.748 223.845 407.499 225.295C400.251 226.654 394.95 228.874 391.598 231.955C388.245 235.036 386.569 239.113 386.569 244.187C386.569 248.808 388.245 252.568 391.598 255.468C394.95 258.367 400.251 260.497 407.499 261.856C414.748 263.215 424.172 263.895 435.77 263.895C445.646 263.895 453.438 263.306 459.147 262.128C464.946 260.95 469.295 259.364 472.195 257.371C475.094 255.287 477.087 253.067 478.175 250.711H513.512ZM591.174 289.039C576.768 289.039 564.762 287.861 555.157 285.505C545.643 283.149 538.485 279.389 533.683 274.224C528.971 269.059 526.615 262.264 526.615 253.837C526.615 245.41 528.971 238.615 533.683 233.45C538.485 228.195 545.643 224.389 555.157 222.033C564.762 219.587 576.768 218.363 591.174 218.363C605.491 218.363 617.361 219.587 626.784 222.033C636.298 224.389 643.411 228.195 648.122 233.45C652.834 238.615 655.19 245.41 655.19 253.837C655.19 262.264 652.834 269.059 648.122 274.224C643.411 279.389 636.298 283.149 626.784 285.505C617.361 287.861 605.491 289.039 591.174 289.039ZM591.174 269.331C597.88 269.331 603.497 268.788 608.028 267.7C612.558 266.522 616.001 264.801 618.357 262.535C620.713 260.18 621.891 257.28 621.891 253.837C621.891 250.394 620.713 247.494 618.357 245.138C616.092 242.783 612.694 241.016 608.164 239.838C603.633 238.66 597.97 238.071 591.174 238.071C584.469 238.071 578.761 238.66 574.049 239.838C569.428 241.016 565.894 242.783 563.448 245.138C561.092 247.404 559.914 250.303 559.914 253.837C559.914 257.28 561.092 260.18 563.448 262.535C565.804 264.801 569.292 266.522 573.913 267.7C578.625 268.788 584.379 269.331 591.174 269.331ZM668.051 193.219H700.67V287H668.051V193.219ZM764.326 288.903C754.54 288.903 745.841 287.544 738.23 284.825C730.619 282.016 724.594 277.984 720.154 272.729C715.804 267.474 713.63 261.131 713.63 253.701C713.63 245.909 715.804 239.385 720.154 234.129C724.594 228.874 730.619 224.933 738.23 222.305C745.841 219.677 754.54 218.363 764.326 218.363C772.481 218.363 779.82 219.224 786.344 220.946C792.868 222.577 798.44 224.978 803.061 228.149C807.682 231.23 811.216 234.945 813.662 239.294C816.109 243.643 817.332 248.446 817.332 253.701C817.332 258.956 816.109 263.759 813.662 268.108C811.216 272.367 807.682 276.082 803.061 279.253C798.44 282.334 792.868 284.735 786.344 286.456C779.82 288.087 772.481 288.903 764.326 288.903ZM776.558 268.244C783.444 268.244 789.742 267.836 795.45 267.021C801.249 266.115 805.87 264.619 809.313 262.535C812.847 260.451 814.614 257.507 814.614 253.701C814.614 249.805 812.847 246.815 809.313 244.731C805.87 242.647 801.249 241.197 795.45 240.381C789.742 239.566 783.444 239.158 776.558 239.158C767.316 239.158 760.158 240.381 755.084 242.828C750.009 245.184 747.472 248.808 747.472 253.701C747.472 256.872 748.605 259.545 750.87 261.72C753.135 263.895 756.443 265.526 760.792 266.613C765.141 267.7 770.397 268.244 776.558 268.244ZM814.614 193.219H847.233V287H816.517C816.154 284.916 815.747 281.563 815.293 276.942C814.84 272.231 814.614 266.975 814.614 261.176V193.219Z" fill="#00B4D8"/>
<path d="M292.88 385.06H329.985C330.619 386.963 332.477 388.594 335.557 389.953C338.638 391.222 342.761 392.218 347.926 392.943C353.181 393.577 359.252 393.895 366.138 393.895C372.934 393.895 378.28 393.713 382.176 393.351C386.163 392.898 388.972 392.173 390.603 391.176C392.234 390.089 393.049 388.639 393.049 386.827C393.049 385.106 391.735 383.792 389.108 382.886C386.48 381.889 381.814 381.209 375.108 380.847C368.403 380.484 358.98 380.303 346.838 380.303C337.777 380.303 329.94 379.895 323.325 379.08C316.801 378.174 311.41 376.815 307.151 375.003C302.983 373.1 299.903 370.744 297.909 367.935C295.916 365.036 294.919 361.592 294.919 357.606C294.919 350.719 297.23 345.056 301.851 340.616C306.562 336.086 313.63 332.733 323.053 330.559C332.567 328.293 344.437 327.161 358.663 327.161C379.503 327.161 395.405 330.196 406.369 336.267C417.423 342.247 422.95 350.9 422.95 362.227H387.748C387.295 359.237 384.486 356.971 379.322 355.431C374.157 353.8 366.818 352.985 357.304 352.985C347.88 352.985 340.858 353.528 336.237 354.615C331.707 355.703 329.441 357.56 329.441 360.188C329.441 361.547 330.076 362.634 331.344 363.45C332.613 364.265 334.787 364.945 337.868 365.489C341.039 365.942 345.479 366.259 351.188 366.44C356.896 366.621 364.145 366.712 372.934 366.712C382.629 366.712 390.874 367.21 397.67 368.207C404.466 369.113 409.948 370.517 414.116 372.42C418.374 374.323 421.455 376.769 423.358 379.76C425.261 382.659 426.212 386.102 426.212 390.089C426.212 396.975 424.037 402.593 419.688 406.942C415.339 411.292 408.453 414.508 399.029 416.592C389.606 418.676 377.283 419.718 362.061 419.718C353.453 419.718 345.524 419.22 338.276 418.223C331.118 417.227 324.73 415.777 319.112 413.874C313.494 411.881 308.737 409.479 304.841 406.671C300.945 403.771 297.955 400.554 295.871 397.021C293.877 393.396 292.88 389.409 292.88 385.06ZM434.321 350.402H514.239V370.789H434.321V350.402ZM457.97 330.015H490.59V417H457.97V330.015ZM572.4 418.903C562.615 418.903 553.916 417.544 546.305 414.825C538.694 412.016 532.668 407.984 528.228 402.729C523.879 397.474 521.704 391.131 521.704 383.701C521.704 375.909 523.879 369.385 528.228 364.129C532.668 358.874 538.694 354.933 546.305 352.305C553.916 349.677 562.615 348.363 572.4 348.363C583.273 348.363 592.652 349.858 600.535 352.849C608.508 355.748 614.624 359.871 618.883 365.217C623.232 370.472 625.407 376.634 625.407 383.701C625.407 388.956 624.184 393.759 621.737 398.108C619.291 402.367 615.757 406.082 611.136 409.253C606.515 412.334 600.942 414.735 594.418 416.456C587.895 418.087 580.555 418.903 572.4 418.903ZM584.633 398.244C591.519 398.244 597.816 397.836 603.525 397.021C609.324 396.115 613.945 394.619 617.388 392.535C620.922 390.451 622.689 387.507 622.689 383.701C622.689 379.805 620.922 376.815 617.388 374.731C613.945 372.647 609.324 371.197 603.525 370.381C597.816 369.566 591.519 369.158 584.633 369.158C575.39 369.158 568.232 370.381 563.158 372.828C558.084 375.184 555.547 378.808 555.547 383.701C555.547 386.872 556.68 389.545 558.945 391.72C561.21 393.895 564.517 395.526 568.867 396.613C573.216 397.7 578.471 398.244 584.633 398.244ZM622.689 350.402H655.308V417H624.591C624.591 417 624.41 415.958 624.048 413.874C623.776 411.79 623.459 408.8 623.096 404.904C622.824 401.007 622.689 396.432 622.689 391.176V350.402ZM666.925 393.079H696.962C698.231 395.435 700.632 397.066 704.166 397.972C707.79 398.878 712.955 399.331 719.66 399.331C724.825 399.331 728.63 399.059 731.077 398.516C733.614 397.972 735.245 397.247 735.97 396.341C736.785 395.435 737.193 394.484 737.193 393.487C737.193 391.947 736.332 390.905 734.61 390.361C732.98 389.727 730.171 389.364 726.184 389.274C722.197 389.092 716.715 389.002 709.738 389.002C703.124 389.002 697.189 388.73 691.933 388.186C686.769 387.552 682.374 386.601 678.75 385.332C675.125 383.973 672.362 382.115 670.459 379.76C668.556 377.404 667.605 374.459 667.605 370.925C667.605 366.576 669.009 362.952 671.818 360.052C674.627 357.062 678.433 354.751 683.235 353.12C688.037 351.399 693.564 350.176 699.816 349.451C706.159 348.726 712.774 348.363 719.66 348.363C731.077 348.363 740.409 349.541 747.658 351.897C754.907 354.162 760.253 357.243 763.696 361.139C767.139 365.036 768.815 369.43 768.725 374.323H739.503C738.507 371.967 736.604 370.336 733.795 369.43C731.077 368.524 726.365 368.071 719.66 368.071C713.317 368.071 708.696 368.569 705.797 369.566C702.988 370.472 701.583 371.967 701.583 374.051C701.583 375.41 702.263 376.452 703.622 377.177C705.072 377.811 707.745 378.265 711.641 378.536C715.628 378.808 721.427 378.944 729.038 378.944C734.293 378.944 739.413 379.125 744.396 379.488C749.47 379.85 754.001 380.62 757.988 381.798C762.065 382.976 765.282 384.788 767.638 387.235C769.993 389.681 771.171 393.034 771.171 397.292C771.171 402.457 769.042 406.671 764.783 409.932C760.615 413.104 754.68 415.414 746.979 416.864C739.277 418.314 730.171 419.039 719.66 419.039C710.508 419.039 702.761 418.45 696.419 417.272C690.167 416.094 685.047 414.554 681.06 412.651C677.074 410.657 673.993 408.528 671.818 406.263C669.734 403.907 668.33 401.596 667.605 399.331C666.971 396.975 666.744 394.891 666.925 393.079ZM874.167 417V392.264C874.167 388.186 873.351 384.743 871.72 381.934C870.089 379.125 867.19 377.041 863.022 375.682C858.944 374.232 853.145 373.508 845.625 373.508C841.366 373.508 837.198 373.915 833.121 374.731C829.134 375.456 825.509 376.362 822.247 377.449C819.076 378.536 816.539 379.624 814.636 380.711L814.364 374.187C814.727 372.828 815.95 370.789 818.034 368.071C820.209 365.262 823.335 362.363 827.412 359.372C831.49 356.292 836.609 353.709 842.77 351.625C849.022 349.451 856.407 348.363 864.924 348.363C870.27 348.363 875.435 348.862 880.419 349.858C885.402 350.855 889.842 352.531 893.738 354.887C897.725 357.153 900.896 360.233 903.252 364.129C905.608 368.026 906.786 372.873 906.786 378.672V417H874.167ZM783.376 417V323.219H815.995V417H783.376Z" fill="white"/>
</g>
</svg>
