<svg width="1200" height="600" viewBox="0 0 1200 600" fill="none" xmlns="http://www.w3.org/2000/svg">
<mask id="mask0_2053_9" style="mask-type:alpha" maskUnits="userSpaceOnUse" x="0" y="0" width="1200" height="600">
<rect width="1200" height="600" fill="#191919"/>
</mask>
<g mask="url(#mask0_2053_9)">
<rect width="1200" height="600" fill="#191919"/>
<path d="M513.512 242.711C513.059 251.319 509.933 258.522 504.134 264.321C498.335 270.12 489.773 274.47 478.447 277.369C467.211 280.269 452.985 281.718 435.77 281.718C422.631 281.718 410.852 280.993 400.432 279.544C390.012 278.185 381.132 275.829 373.793 272.476C366.453 269.033 360.836 264.367 356.939 258.477C353.043 252.587 351.095 245.157 351.095 236.187C351.095 227.217 353.043 219.741 356.939 213.761C360.836 207.69 366.453 202.888 373.793 199.354C381.132 195.73 390.012 193.148 400.432 191.607C410.852 190.067 422.631 189.297 435.77 189.297C452.985 189.297 467.256 190.882 478.582 194.054C489.909 197.134 498.471 201.71 504.27 207.781C510.069 213.852 513.195 221.237 513.648 229.935H478.311C477.223 227.036 475.23 224.498 472.33 222.324C469.431 220.059 465.082 218.292 459.283 217.023C453.484 215.755 445.646 215.12 435.77 215.12C424.172 215.12 414.748 215.845 407.499 217.295C400.251 218.654 394.95 220.874 391.598 223.955C388.245 227.036 386.569 231.113 386.569 236.187C386.569 240.808 388.245 244.568 391.598 247.468C394.95 250.367 400.251 252.497 407.499 253.856C414.748 255.215 424.172 255.895 435.77 255.895C445.646 255.895 453.438 255.306 459.147 254.128C464.946 252.95 469.295 251.364 472.195 249.371C475.094 247.287 477.087 245.067 478.175 242.711H513.512ZM591.174 281.039C576.768 281.039 564.762 279.861 555.157 277.505C545.643 275.149 538.485 271.389 533.683 266.224C528.971 261.059 526.615 254.264 526.615 245.837C526.615 237.41 528.971 230.615 533.683 225.45C538.485 220.195 545.643 216.389 555.157 214.033C564.762 211.587 576.768 210.363 591.174 210.363C605.491 210.363 617.361 211.587 626.784 214.033C636.298 216.389 643.411 220.195 648.122 225.45C652.834 230.615 655.19 237.41 655.19 245.837C655.19 254.264 652.834 261.059 648.122 266.224C643.411 271.389 636.298 275.149 626.784 277.505C617.361 279.861 605.491 281.039 591.174 281.039ZM591.174 261.331C597.88 261.331 603.497 260.788 608.028 259.7C612.558 258.522 616.001 256.801 618.357 254.535C620.713 252.18 621.891 249.28 621.891 245.837C621.891 242.394 620.713 239.494 618.357 237.138C616.092 234.783 612.694 233.016 608.164 231.838C603.633 230.66 597.97 230.071 591.174 230.071C584.469 230.071 578.761 230.66 574.049 231.838C569.428 233.016 565.894 234.783 563.448 237.138C561.092 239.404 559.914 242.303 559.914 245.837C559.914 249.28 561.092 252.18 563.448 254.535C565.804 256.801 569.292 258.522 573.913 259.7C578.625 260.788 584.379 261.331 591.174 261.331ZM668.051 185.219H700.67V279H668.051V185.219ZM764.326 280.903C754.54 280.903 745.841 279.544 738.23 276.825C730.619 274.016 724.594 269.984 720.154 264.729C715.804 259.474 713.63 253.131 713.63 245.701C713.63 237.909 715.804 231.385 720.154 226.129C724.594 220.874 730.619 216.933 738.23 214.305C745.841 211.677 754.54 210.363 764.326 210.363C772.481 210.363 779.82 211.224 786.344 212.946C792.868 214.577 798.44 216.978 803.061 220.149C807.682 223.23 811.216 226.945 813.662 231.294C816.109 235.643 817.332 240.446 817.332 245.701C817.332 250.956 816.109 255.759 813.662 260.108C811.216 264.367 807.682 268.082 803.061 271.253C798.44 274.334 792.868 276.735 786.344 278.456C779.82 280.087 772.481 280.903 764.326 280.903ZM776.558 260.244C783.444 260.244 789.742 259.836 795.45 259.021C801.249 258.115 805.87 256.619 809.313 254.535C812.847 252.451 814.614 249.507 814.614 245.701C814.614 241.805 812.847 238.815 809.313 236.731C805.87 234.647 801.249 233.197 795.45 232.381C789.742 231.566 783.444 231.158 776.558 231.158C767.316 231.158 760.158 232.381 755.084 234.828C750.009 237.184 747.472 240.808 747.472 245.701C747.472 248.872 748.605 251.545 750.87 253.72C753.135 255.895 756.443 257.526 760.792 258.613C765.141 259.7 770.397 260.244 776.558 260.244ZM814.614 185.219H847.233V279H816.517C816.154 276.916 815.747 273.563 815.293 268.942C814.84 264.231 814.614 258.975 814.614 253.176V185.219Z" fill="#00B4D8"/>
<path d="M292.88 377.06H329.985C330.619 378.963 332.477 380.594 335.557 381.953C338.638 383.222 342.761 384.218 347.926 384.943C353.181 385.577 359.252 385.895 366.138 385.895C372.934 385.895 378.28 385.713 382.176 385.351C386.163 384.898 388.972 384.173 390.603 383.176C392.234 382.089 393.049 380.639 393.049 378.827C393.049 377.106 391.735 375.792 389.108 374.886C386.48 373.889 381.814 373.209 375.108 372.847C368.403 372.484 358.98 372.303 346.838 372.303C337.777 372.303 329.94 371.895 323.325 371.08C316.801 370.174 311.41 368.815 307.151 367.003C302.983 365.1 299.903 362.744 297.909 359.935C295.916 357.036 294.919 353.592 294.919 349.606C294.919 342.719 297.23 337.056 301.851 332.616C306.562 328.086 313.63 324.733 323.053 322.559C332.567 320.293 344.437 319.161 358.663 319.161C379.503 319.161 395.405 322.196 406.369 328.267C417.423 334.247 422.95 342.9 422.95 354.227H387.748C387.295 351.237 384.486 348.971 379.322 347.431C374.157 345.8 366.818 344.985 357.304 344.985C347.88 344.985 340.858 345.528 336.237 346.615C331.707 347.703 329.441 349.56 329.441 352.188C329.441 353.547 330.076 354.634 331.344 355.45C332.613 356.265 334.787 356.945 337.868 357.489C341.039 357.942 345.479 358.259 351.188 358.44C356.896 358.621 364.145 358.712 372.934 358.712C382.629 358.712 390.874 359.21 397.67 360.207C404.466 361.113 409.948 362.517 414.116 364.42C418.374 366.323 421.455 368.769 423.358 371.76C425.261 374.659 426.212 378.102 426.212 382.089C426.212 388.975 424.037 394.593 419.688 398.942C415.339 403.292 408.453 406.508 399.029 408.592C389.606 410.676 377.283 411.718 362.061 411.718C353.453 411.718 345.524 411.22 338.276 410.223C331.118 409.227 324.73 407.777 319.112 405.874C313.494 403.881 308.737 401.479 304.841 398.671C300.945 395.771 297.955 392.554 295.871 389.021C293.877 385.396 292.88 381.409 292.88 377.06ZM434.321 342.402H514.239V362.789H434.321V342.402ZM457.97 322.015H490.59V409H457.97V322.015ZM572.4 410.903C562.615 410.903 553.916 409.544 546.305 406.825C538.694 404.016 532.668 399.984 528.228 394.729C523.879 389.474 521.704 383.131 521.704 375.701C521.704 367.909 523.879 361.385 528.228 356.129C532.668 350.874 538.694 346.933 546.305 344.305C553.916 341.677 562.615 340.363 572.4 340.363C583.273 340.363 592.652 341.858 600.535 344.849C608.508 347.748 614.624 351.871 618.883 357.217C623.232 362.472 625.407 368.634 625.407 375.701C625.407 380.956 624.184 385.759 621.737 390.108C619.291 394.367 615.757 398.082 611.136 401.253C606.515 404.334 600.942 406.735 594.418 408.456C587.895 410.087 580.555 410.903 572.4 410.903ZM584.633 390.244C591.519 390.244 597.816 389.836 603.525 389.021C609.324 388.115 613.945 386.619 617.388 384.535C620.922 382.451 622.689 379.507 622.689 375.701C622.689 371.805 620.922 368.815 617.388 366.731C613.945 364.647 609.324 363.197 603.525 362.381C597.816 361.566 591.519 361.158 584.633 361.158C575.39 361.158 568.232 362.381 563.158 364.828C558.084 367.184 555.547 370.808 555.547 375.701C555.547 378.872 556.68 381.545 558.945 383.72C561.21 385.895 564.517 387.526 568.867 388.613C573.216 389.7 578.471 390.244 584.633 390.244ZM622.689 342.402H655.308V409H624.591C624.591 409 624.41 407.958 624.048 405.874C623.776 403.79 623.459 400.8 623.096 396.904C622.824 393.007 622.689 388.432 622.689 383.176V342.402ZM666.925 385.079H696.962C698.231 387.435 700.632 389.066 704.166 389.972C707.79 390.878 712.955 391.331 719.66 391.331C724.825 391.331 728.63 391.059 731.077 390.516C733.614 389.972 735.245 389.247 735.97 388.341C736.785 387.435 737.193 386.484 737.193 385.487C737.193 383.947 736.332 382.905 734.61 382.361C732.98 381.727 730.171 381.364 726.184 381.274C722.197 381.092 716.715 381.002 709.738 381.002C703.124 381.002 697.189 380.73 691.933 380.186C686.769 379.552 682.374 378.601 678.75 377.332C675.125 375.973 672.362 374.115 670.459 371.76C668.556 369.404 667.605 366.459 667.605 362.925C667.605 358.576 669.009 354.952 671.818 352.052C674.627 349.062 678.433 346.751 683.235 345.12C688.037 343.399 693.564 342.176 699.816 341.451C706.159 340.726 712.774 340.363 719.66 340.363C731.077 340.363 740.409 341.541 747.658 343.897C754.907 346.162 760.253 349.243 763.696 353.139C767.139 357.036 768.815 361.43 768.725 366.323H739.503C738.507 363.967 736.604 362.336 733.795 361.43C731.077 360.524 726.365 360.071 719.66 360.071C713.317 360.071 708.696 360.569 705.797 361.566C702.988 362.472 701.583 363.967 701.583 366.051C701.583 367.41 702.263 368.452 703.622 369.177C705.072 369.811 707.745 370.265 711.641 370.536C715.628 370.808 721.427 370.944 729.038 370.944C734.293 370.944 739.413 371.125 744.396 371.488C749.47 371.85 754.001 372.62 757.988 373.798C762.065 374.976 765.282 376.788 767.638 379.235C769.993 381.681 771.171 385.034 771.171 389.292C771.171 394.457 769.042 398.671 764.783 401.932C760.615 405.104 754.68 407.414 746.979 408.864C739.277 410.314 730.171 411.039 719.66 411.039C710.508 411.039 702.761 410.45 696.419 409.272C690.167 408.094 685.047 406.554 681.06 404.651C677.074 402.657 673.993 400.528 671.818 398.263C669.734 395.907 668.33 393.596 667.605 391.331C666.971 388.975 666.744 386.891 666.925 385.079ZM874.167 409V384.264C874.167 380.186 873.351 376.743 871.72 373.934C870.089 371.125 867.19 369.041 863.022 367.682C858.944 366.232 853.145 365.508 845.625 365.508C841.366 365.508 837.198 365.915 833.121 366.731C829.134 367.456 825.509 368.362 822.247 369.449C819.076 370.536 816.539 371.624 814.636 372.711L814.364 366.187C814.727 364.828 815.95 362.789 818.034 360.071C820.209 357.262 823.335 354.363 827.412 351.372C831.49 348.292 836.609 345.709 842.77 343.625C849.022 341.451 856.407 340.363 864.924 340.363C870.27 340.363 875.435 340.862 880.419 341.858C885.402 342.855 889.842 344.531 893.738 346.887C897.725 349.153 900.896 352.233 903.252 356.129C905.608 360.026 906.786 364.873 906.786 370.672V409H874.167ZM783.376 409V315.219H815.995V409H783.376Z" fill="white"/>
</g>
</svg>
